<svg xmlns="http://www.w3.org/2000/svg" xmlns:xlink="http://www.w3.org/1999/xlink" width="142" height="60" viewBox="0 0 142 60"><defs><style>.a{fill:#00529f;}.b,.c{fill:#fff;}.c{font-size:18px;font-family:NunitoSans-SemiBold, Nunito Sans;font-weight:600;}.d{filter:url(#a);}</style><filter id="a" x="0" y="0" width="142" height="60" filterUnits="userSpaceOnUse"><feOffset dx="1" dy="3" input="SourceAlpha"/><feGaussianBlur stdDeviation="2" result="b"/><feFlood flood-opacity="0.161"/><feComposite operator="in" in2="b"/><feComposite in="SourceGraphic"/></filter></defs><g transform="translate(5 3)"><g class="d" transform="matrix(1, 0, 0, 1, -5, -3)"><rect class="a" width="130" height="48" rx="4" transform="translate(5 3)"/></g><g transform="translate(32 15)"><path class="b" d="M12.927,5.83H8.618a.253.253,0,0,1-.253-.253V1.267a1.267,1.267,0,1,0-2.535,0V5.576a.253.253,0,0,1-.253.253H1.267a1.267,1.267,0,1,0,0,2.535H5.576a.253.253,0,0,1,.253.253v4.309a1.267,1.267,0,0,0,2.535,0V8.618a.253.253,0,0,1,.253-.253h4.309a1.267,1.267,0,0,0,0-2.535Zm0,0" transform="translate(0 3.903)"/><text class="c" transform="translate(28.097 16)"><tspan x="0" y="0">Add</tspan></text></g></g></svg>