<svg xmlns="http://www.w3.org/2000/svg" width="50.723" height="50.722" viewBox="0 0 50.723 50.722"><defs><style>.a{fill:#00529f;}</style></defs><g transform="translate(-716.638 -511.664)"><path class="a" d="M59.815,88.852l4.678.451a20.2,20.2,0,0,0,2.373,5.637l-2.978,3.6a.9.9,0,0,0,.057,1.212l5.065,5.065a.9.9,0,0,0,1.212.057l3.6-2.984a20.656,20.656,0,0,0,5.631,2.378l.451,4.662a.887.887,0,0,0,.9.8h7.181a.887.887,0,0,0,.9-.8l.451-4.67a20.191,20.191,0,0,0,5.637-2.369l3.6,2.98a.9.9,0,0,0,1.212-.056l5.065-5.065a.9.9,0,0,0,.057-1.212l-2.983-3.6a20.656,20.656,0,0,0,2.378-5.632l4.615-.451a.9.9,0,0,0,.814-.9V80.774a.9.9,0,0,0-.815-.9l-4.678-.451a20.2,20.2,0,0,0-2.373-5.637l2.978-3.6a.9.9,0,0,0-.053-1.208l-5-5.065a.9.9,0,0,0-1.216-.061l-3.6,2.984a20.656,20.656,0,0,0-5.631-2.378L88.881,59.8a.887.887,0,0,0-.9-.8H80.8a.887.887,0,0,0-.9.8l-.451,4.67a20.189,20.189,0,0,0-5.637,2.369l-3.6-2.98a.9.9,0,0,0-1.212.056l-5.065,5.065a.9.9,0,0,0-.057,1.212l2.984,3.6a20.658,20.658,0,0,0-2.378,5.631l-4.678.451a.9.9,0,0,0-.815.9v7.181a.9.9,0,0,0,.815.9Zm.988-7.26,4.507-.434a.9.9,0,0,0,.794-.707,18.873,18.873,0,0,1,2.633-6.242.9.9,0,0,0-.063-1.063L65.8,69.675,69.7,65.77l3.471,2.875a.9.9,0,0,0,1.075.056,18.312,18.312,0,0,1,6.231-2.626.883.883,0,0,0,.707-.778l.434-4.491h5.544L87.6,65.3a.892.892,0,0,0,.707.786,18.863,18.863,0,0,1,6.242,2.629.9.9,0,0,0,1.063-.065l3.467-2.872,3.848,3.9-2.878,3.476a.9.9,0,0,0-.056,1.075,18.315,18.315,0,0,1,2.626,6.231.9.9,0,0,0,.794.707l4.507.433v5.545l-4.444.433a.9.9,0,0,0-.793.707,18.875,18.875,0,0,1-2.633,6.242.9.9,0,0,0,.063,1.063l2.875,3.471-3.9,3.905-3.472-2.875a.9.9,0,0,0-1.075-.056,18.312,18.312,0,0,1-6.231,2.626.883.883,0,0,0-.707.778l-.434,4.491H81.622l-.434-4.491a.892.892,0,0,0-.707-.786,18.864,18.864,0,0,1-6.242-2.629.9.9,0,0,0-1.063.065L69.7,102.958l-3.905-3.9,2.875-3.471a.9.9,0,0,0,.056-1.075A18.315,18.315,0,0,1,66.1,88.277a.9.9,0,0,0-.794-.707L60.8,87.136Z" transform="translate(657.638 452.661)"/><path class="a" d="M155.53,170.164a14.882,14.882,0,1,0-14.882-14.882A14.882,14.882,0,0,0,155.53,170.164Zm0-27.962a13.08,13.08,0,1,1-13.08,13.08A13.08,13.08,0,0,1,155.53,142.2Z" transform="translate(586.502 381.743)"/><path class="a" d="M208.407,229.568a.9.9,0,0,0,1.259,0l7.451-7.274a.9.9,0,1,0-1.259-1.29l-6.821,6.66-3.506-3.423a.9.9,0,0,0-1.259,1.29Z" transform="translate(531.306 311.74)"/></g></svg>