<svg xmlns="http://www.w3.org/2000/svg" width="51.362" height="51.362" viewBox="0 0 51.362 51.362"><defs><style>.a{fill:#00529f;}</style></defs><path class="a" d="M45.734,2.657a6.634,6.634,0,0,0-6.57,5.8H37.45a2.488,2.488,0,0,0-2.485,2.485V24.2H27.509v-10a6.627,6.627,0,1,0-1.657,0v10H20.539L18.4,26.338v-15.4a2.488,2.488,0,0,0-2.485-2.485H14.2a6.627,6.627,0,1,0,0,1.657h1.714a.829.829,0,0,1,.828.828V27.995l-1.657,1.657v9.456H13.426V22.539h1.657V20.882H13.426a1.658,1.658,0,0,0-1.657,1.657V39.107a1.658,1.658,0,0,0,1.657,1.657H29.994v1.657H12.6a2.488,2.488,0,0,1-2.485-2.485V21.71A2.488,2.488,0,0,1,12.6,19.225h2.485V17.568H12.6A4.147,4.147,0,0,0,8.456,21.71V39.935A4.147,4.147,0,0,0,12.6,44.077h7.456v1.657H17.568a2.488,2.488,0,0,0-2.485,2.485v1.657a2.488,2.488,0,0,0,2.485,2.485H35.793a2.488,2.488,0,0,0,2.485-2.485V48.22a2.488,2.488,0,0,0-2.485-2.485H33.308V44.077h7.456a4.147,4.147,0,0,0,4.142-4.142V21.71a4.147,4.147,0,0,0-4.142-4.142H38.279v1.657h2.485a2.488,2.488,0,0,1,2.485,2.485V35.793H41.592V22.539a1.658,1.658,0,0,0-1.657-1.657H38.279v1.657h1.657V35.793H38.279V24.2H36.622V10.941a.829.829,0,0,1,.828-.828h1.714a6.625,6.625,0,1,0,6.57-7.456ZM21.71,7.627A4.95,4.95,0,0,1,22,5.97h1.553a7.8,7.8,0,0,0-.186,1.657,7.8,7.8,0,0,0,.186,1.657H22A4.95,4.95,0,0,1,21.71,7.627Zm3.314,0a6.247,6.247,0,0,1,.234-1.657h2.85a6.044,6.044,0,0,1,0,3.314h-2.85a6.3,6.3,0,0,1-.231-1.657Zm.9-3.314a9.546,9.546,0,0,1,.759-1.194,9.388,9.388,0,0,1,.76,1.194Zm5.728,3.314a4.95,4.95,0,0,1-.29,1.657H29.8a7.742,7.742,0,0,0,.2-1.657,7.8,7.8,0,0,0-.186-1.657h1.553A4.95,4.95,0,0,1,31.651,7.627Zm-4.213,3.314a9.546,9.546,0,0,1-.759,1.194,9.388,9.388,0,0,1-.76-1.194ZM28.63,12.2a10.574,10.574,0,0,0,.64-1.258h1.105A4.976,4.976,0,0,1,28.63,12.2Zm1.745-7.885h-1.1a10.623,10.623,0,0,0-.642-1.257A5,5,0,0,1,30.376,4.314ZM24.729,3.057a10.5,10.5,0,0,0-.643,1.257h-1.1a4.994,4.994,0,0,1,1.743-1.257Zm-1.743,7.884h1.1a10.623,10.623,0,0,0,.642,1.257,5,5,0,0,1-1.742-1.257ZM11.322,5.97h-1.1A10.623,10.623,0,0,0,9.58,4.714,5,5,0,0,1,11.322,5.97ZM12.6,9.284a4.95,4.95,0,0,1-.29,1.657H10.755a7.457,7.457,0,0,0,0-3.314h1.553A4.95,4.95,0,0,1,12.6,9.284ZM6.2,10.941a6.023,6.023,0,0,1,0-3.314h2.85a6.336,6.336,0,0,1,.23,1.657,6.281,6.281,0,0,1-.233,1.657ZM8.384,12.6a9.546,9.546,0,0,1-.759,1.194,9.388,9.388,0,0,1-.76-1.194ZM2.657,9.284a4.95,4.95,0,0,1,.29-1.657H4.5a7.457,7.457,0,0,0,0,3.314H2.947A4.95,4.95,0,0,1,2.657,9.284ZM6.87,5.97a9.546,9.546,0,0,1,.759-1.194,9.388,9.388,0,0,1,.76,1.194ZM5.676,4.714A10.5,10.5,0,0,0,5.033,5.97h-1.1A4.994,4.994,0,0,1,5.676,4.714ZM3.933,12.6h1.1a10.623,10.623,0,0,0,.642,1.257A5,5,0,0,1,3.933,12.6Zm5.646,1.257a10.5,10.5,0,0,0,.642-1.257h1.1A4.983,4.983,0,0,1,9.579,13.854ZM20.053,27.024v2.142H17.911Zm15.74,20.367a.829.829,0,0,1,.828.828v1.657a.829.829,0,0,1-.828.828H17.568a.829.829,0,0,1-.828-.828V48.22a.829.829,0,0,1,.828-.828h2.485a1.732,1.732,0,0,0,1.8,1.657h9.664a1.732,1.732,0,0,0,1.8-1.657Zm-4.129-.05a.211.211,0,0,1-.152.05H21.849c-.084,0-.132-.031-.138-.01v-3.3h9.943Zm11.585-7.406a2.488,2.488,0,0,1-2.485,2.485H31.651V37.45h11.6Zm-11.6-4.142a1.658,1.658,0,0,0-1.657,1.657v1.657H16.74V30.823h4.97v-4.97H36.622v9.941ZM49.429,5.97h-1.1a10.623,10.623,0,0,0-.642-1.257A5,5,0,0,1,49.429,5.97ZM50.7,9.284a4.95,4.95,0,0,1-.29,1.657H48.862a7.457,7.457,0,0,0,0-3.314h1.553A4.95,4.95,0,0,1,50.7,9.284Zm-6.4,1.657a6.023,6.023,0,0,1,0-3.314h2.85a6.044,6.044,0,0,1,0,3.314ZM46.491,12.6a9.546,9.546,0,0,1-.759,1.194,9.387,9.387,0,0,1-.76-1.194ZM40.764,9.284a4.95,4.95,0,0,1,.29-1.657h1.553a7.457,7.457,0,0,0,0,3.314H41.054A4.95,4.95,0,0,1,40.764,9.284ZM44.977,5.97a9.546,9.546,0,0,1,.759-1.194A9.388,9.388,0,0,1,46.5,5.97ZM43.783,4.714A10.5,10.5,0,0,0,43.14,5.97h-1.1A4.994,4.994,0,0,1,43.783,4.714ZM42.04,12.6h1.1a10.623,10.623,0,0,0,.642,1.257A5,5,0,0,1,42.04,12.6Zm5.646,1.257a10.5,10.5,0,0,0,.642-1.257h1.1A4.983,4.983,0,0,1,47.686,13.854Z" transform="translate(-1 -1)"/></svg>