<svg xmlns="http://www.w3.org/2000/svg" width="14.345" height="16.394" viewBox="0 0 14.345 16.394"><defs><style>.a{fill:#00529f;}</style></defs><path class="a" d="M8.581,13.32H9.35a.384.384,0,0,0,.384-.384V6.02a.384.384,0,0,0-.384-.384H8.581A.384.384,0,0,0,8.2,6.02v6.916A.384.384,0,0,0,8.581,13.32ZM13.832,2.562H11.194L10.105.746A1.537,1.537,0,0,0,8.786,0H5.558A1.537,1.537,0,0,0,4.24.746L3.151,2.562H.512A.512.512,0,0,0,0,3.074v.512A.512.512,0,0,0,.512,4.1h.512V14.857a1.537,1.537,0,0,0,1.537,1.537h9.222a1.537,1.537,0,0,0,1.537-1.537V4.1h.512a.512.512,0,0,0,.512-.512V3.074A.512.512,0,0,0,13.832,2.562ZM5.5,1.63a.192.192,0,0,1,.165-.093h3.01a.192.192,0,0,1,.165.093l.559.931H4.943Zm6.281,13.227H2.562V4.1h9.222ZM5,13.32h.768a.384.384,0,0,0,.384-.384V6.02a.384.384,0,0,0-.384-.384H5a.384.384,0,0,0-.384.384v6.916A.384.384,0,0,0,5,13.32Z" transform="translate(0 0)"/></svg>