<svg xmlns="http://www.w3.org/2000/svg" width="35.531" height="27.964" viewBox="0 0 35.531 27.964"><defs><style>.a{fill:#00529f;}</style></defs><g transform="translate(-0.604 -35.786)"><g transform="translate(0.604 35.786)"><path class="a" d="M36.136,60.243a10.421,10.421,0,0,1-.745,1.765,3.815,3.815,0,0,1-3.424,1.742c-2.5-.012-4.995,0-7.492,0H4.845a4.094,4.094,0,0,1-3.689-2,3.873,3.873,0,0,1-.548-2.118q.006-5.1,0-10.2c0-2.151-.008-4.3,0-6.45a4.018,4.018,0,0,1,3.139-3.933,5.152,5.152,0,0,1,1.067-.1c1.642-.011,3.284,0,4.925,0h.343a8.369,8.369,0,0,1,.4-1.374A3.028,3.028,0,0,1,13.409,35.8c3.306-.01,6.612-.019,9.919,0a3.05,3.05,0,0,1,3.11,2.362,7.885,7.885,0,0,1,.128.8h5.391A4,4,0,0,1,36.08,42.33a.309.309,0,0,0,.053.086ZM18.363,61.961H31.891a2.176,2.176,0,0,0,2.432-2.1,18.923,18.923,0,0,0,.058-2.178q.006-7.248,0-14.5a2.324,2.324,0,0,0-.9-2,2.531,2.531,0,0,0-1.6-.437q-3.052.01-6.1,0a.934.934,0,0,1-1.017-1.009c0-.185-.013-.371,0-.555.077-.973-.4-1.666-1.655-1.649-2.936.039-5.873.012-8.809.013-.358,0-.718-.011-1.075.011a1.208,1.208,0,0,0-1.163,1.115c-.031.31-.022.624-.025.936-.007.8-.344,1.14-1.134,1.14H4.715a2.179,2.179,0,0,0-2.31,2.3q-.007,8.29.007,16.578a2.632,2.632,0,0,0,.234,1.1,2.2,2.2,0,0,0,2.19,1.23Q11.6,61.957,18.363,61.961Z" transform="translate(-0.604 -35.786)"/><path class="a" d="M98.368,104.42a8.308,8.308,0,1,1-8.309,8.293A8.342,8.342,0,0,1,98.368,104.42Zm6.477,8.383a6.457,6.457,0,1,0-1.9,4.568A6.476,6.476,0,0,0,104.845,112.8Z" transform="translate(-80.601 -97.163)"/><path class="a" d="M268.542,107.508a1.65,1.65,0,1,1,1.168-.488A1.644,1.644,0,0,1,268.542,107.508Z" transform="translate(-238.745 -96.985)"/></g></g></svg>