<svg xmlns="http://www.w3.org/2000/svg" width="31.949" height="41.98" viewBox="0 0 31.949 41.98"><defs><style>.a{fill:#00529f;}</style></defs><g transform="translate(-46.419 -0.69)"><g transform="translate(46.419 0.69)"><path class="a" d="M49.535,42.67a4.416,4.416,0,0,1-1.911-.962,3.627,3.627,0,0,1-1.2-2.726V4.386A3.659,3.659,0,0,1,50.113.693q9.84-.007,19.68,0a3.661,3.661,0,0,1,3.685,3.7V5.611h4.89V30.352H73.479v6.154a6.13,6.13,0,0,1-5.147,6.083.8.8,0,0,0-.179.079Zm-.657-7.279c.657-.035,1.253-.094,1.848-.1q8.158-.01,16.318-.009a5.1,5.1,0,0,0,1.176-.123,3.7,3.7,0,0,0,2.806-3.795V4.687c0-1.084-.457-1.54-1.544-1.54H50.425c-1.083,0-1.533.457-1.533,1.546v30.7ZM71,36.534a7.237,7.237,0,0,1-4.74,1.227c-5.271-.032-10.543-.011-15.816-.011a3.934,3.934,0,0,0-.41.007A1.268,1.268,0,0,0,48.887,38.9a1.242,1.242,0,0,0,.993,1.273,2.419,2.419,0,0,0,.528.037H66.179c.411,0,.82.011,1.23-.005a3.688,3.688,0,0,0,3.586-3.668ZM73.507,8.086v4.954h2.409V8.086Zm2.415,14.845H73.505v4.954h2.417Zm-2.415-7.384v4.871h2.409V15.547Z" transform="translate(-46.419 -0.69)"/><path class="a" d="M103.5,59.077c.485.645.96,1.278,1.46,1.941a7.8,7.8,0,0,1-2.711,1.385,8.664,8.664,0,1,1,5.967-10,7.044,7.044,0,0,1,.11,2.352,3.656,3.656,0,0,1-5.875,2.312c-.064-.047-.127-.1-.2-.15a3.81,3.81,0,0,1-2.45.919A3.692,3.692,0,1,1,103.474,54a1.241,1.241,0,1,0,2.46-.067,6.135,6.135,0,0,0-12.23-.592,6.1,6.1,0,0,0,4.9,6.813,5.941,5.941,0,0,0,4.542-.876c.092-.058.182-.122.273-.181a.532.532,0,0,1,.082-.024ZM99.78,55.37a1.229,1.229,0,1,0-1.221-1.235,1.268,1.268,0,0,0,1.221,1.239Z" transform="translate(-86.257 -40.534)"/><path class="a" d="M148.812,229.416H136.57V227h12.242Z" transform="translate(-126.697 -202.215)"/><path class="a" d="M148.827,272v2.4H136.57V272Z" transform="translate(-126.697 -242.286)"/><path class="a" d="M93.939,229.469H91.53V227.06h2.409Z" transform="translate(-86.589 -202.268)"/><path class="a" d="M93.97,272v2.4H91.55V272Z" transform="translate(-86.607 -242.286)"/></g></g></svg>