<svg xmlns="http://www.w3.org/2000/svg" width="41.127" height="41.37" viewBox="0 0 41.127 41.37"><defs><style>.a{fill:#00529f;}</style></defs><path class="a" d="M41.252,34.76a3.887,3.887,0,0,1-3.887,3.887H18.62a3.887,3.887,0,1,1,0-7.774H37.365A3.887,3.887,0,0,1,41.252,34.76ZM9.216,28.15H4.255a4.129,4.129,0,0,0-4.13,4.13V37.24a4.129,4.129,0,0,0,4.13,4.13H9.216a4.129,4.129,0,0,0,4.13-4.13V32.28A4.128,4.128,0,0,0,9.216,28.15ZM37.365,16.8H18.62a3.887,3.887,0,1,0,0,7.774H37.365a3.887,3.887,0,1,0,0-7.774ZM13.346,18.2v4.96a4.128,4.128,0,0,1-4.13,4.13H4.255a4.128,4.128,0,0,1-4.13-4.13V18.2a4.129,4.129,0,0,1,4.13-4.13H9.216A4.129,4.129,0,0,1,13.346,18.2ZM11.4,17.884a1.457,1.457,0,0,0-2.061,0l-.321.321L5.858,21.366l-1.6-1.6-.123-.123A1.457,1.457,0,1,0,2.07,21.7l2.758,2.758a1.459,1.459,0,0,0,2.062,0l1.292-1.292L9.218,22.13,11.4,19.948A1.462,1.462,0,0,0,11.4,17.884ZM18.62,10.5H37.365a3.887,3.887,0,1,0,0-7.774H18.62a3.887,3.887,0,1,0,0,7.774ZM9.216,0H4.255A4.129,4.129,0,0,0,.125,4.13V9.09a4.129,4.129,0,0,0,4.13,4.13H9.216a4.129,4.129,0,0,0,4.13-4.13V4.13A4.129,4.129,0,0,0,9.216,0Z" transform="translate(-0.125)"/></svg>