<svg xmlns="http://www.w3.org/2000/svg" width="53.538" height="51.424" viewBox="0 0 53.538 51.424"><defs><style>.a{fill:#00529f;}</style></defs><g transform="translate(-0.654 -15.836)"><path class="a" d="M670.854,386.929c-1-.208-2.021-.355-3-.635a14.509,14.509,0,1,1,18.478-16.307c.064.412.14.823.207,1.233v2.411a2.966,2.966,0,0,0-.091.345A14.286,14.286,0,0,1,676.5,386.2a26.319,26.319,0,0,1-3.24.732Zm13.448-14.8a12.268,12.268,0,1,0-11.99,12.566A12.3,12.3,0,0,0,684.3,372.125Z" transform="translate(-632.344 -319.676)"/><path class="a" d="M485.348,225.748a7.911,7.911,0,0,1,.027-13.391c-.1-.078-.193-.151-.286-.218a7.825,7.825,0,0,1,4.461-14.3c6.551-.014,13.1,0,19.653,0,4.529,0,9.058-.01,13.589,0a7.824,7.824,0,0,1,4.72,14.146l-.531.378.468.335a7.659,7.659,0,0,1,2.578,3.165,1.122,1.122,0,1,1-2.019.944,5.453,5.453,0,0,0-5.3-3.295q-16.619.017-33.239,0a5.557,5.557,0,0,0-.123,11.114c4.356.01,8.71,0,13.066,0a4.335,4.335,0,0,1,.522.01,1.14,1.14,0,0,1,.021,2.268,3.618,3.618,0,0,1-.522.013H489.423a5.557,5.557,0,0,0-.18,11.111c3.658.061,7.317.02,10.974.028a2.846,2.846,0,0,1,.723.073,1.095,1.095,0,0,1,0,2.095,2.3,2.3,0,0,1-.619.073c-3.588,0-7.177.02-10.766,0a7.8,7.8,0,0,1-7.885-8.164,7.606,7.606,0,0,1,3.269-6.037c.126-.094.253-.184.378-.279C485.334,225.829,485.334,225.806,485.348,225.748Zm20.843-14.525h16.826a5.568,5.568,0,1,0-.275-11.132q-16.54-.014-33.077.008a6.565,6.565,0,0,0-1.955.279,5.56,5.56,0,0,0,1.708,10.842q8.388.013,16.773.007Z" transform="translate(-481 -182)"/><path class="a" d="M609.559,329.361a3.339,3.339,0,1,1,0,.007Zm4.431,0a1.109,1.109,0,1,0-1.095,1.1,1.117,1.117,0,0,0,1.095-1.1Z" transform="translate(-591.042 -292.265)"/><path class="a" d="M532.954,326a3.352,3.352,0,1,1-2.364,1A3.352,3.352,0,0,1,532.954,326Zm0,2.234a1.117,1.117,0,1,0,1.137,1.067,1.137,1.137,0,0,0-1.142-1.067Z" transform="translate(-522.275 -292.265)"/><path class="a" d="M536.31,425.329A3.345,3.345,0,1,1,532.936,422,3.345,3.345,0,0,1,536.31,425.329Zm-3.334,1.14a1.117,1.117,0,1,0-1.117-1.133A1.138,1.138,0,0,0,532.976,426.469Z" transform="translate(-522.267 -374.858)"/><path class="a" d="M612.762,422a1.113,1.113,0,0,1,1.226,1.02,1.077,1.077,0,0,1-1.038,1.2c-.75.116-1.155.5-1.169,1.106-.014.627.4,1.04,1.17,1.159a1.08,1.08,0,0,1,1.036,1.2,1.114,1.114,0,0,1-1.226,1.018,3.352,3.352,0,0,1,0-6.7Z" transform="translate(-591.043 -374.857)"/><path class="a" d="M627.632,343.087a1.117,1.117,0,1,1-.316-.8A1.117,1.117,0,0,1,627.632,343.087Z" transform="translate(-604.683 -305.988)"/><path class="a" d="M546.689,342a1.117,1.117,0,1,1-1.089,1.117A1.137,1.137,0,0,1,546.689,342Z" transform="translate(-536.015 -306.028)"/><path class="a" d="M546.685,440.235a1.117,1.117,0,1,1,1.1-1.152A1.137,1.137,0,0,1,546.685,440.235Z" transform="translate(-535.975 -388.624)"/><path class="a" d="M714.319,415.067v5.274c0,.892-.405,1.416-1.1,1.429s-1.117-.517-1.124-1.445v-5.257H706.6a1.1,1.1,0,0,1-1.19-1.162,1.071,1.071,0,0,1,1.18-1.056c1.62-.011,3.239,0,4.859,0h.616c.011-.233.026-.419.026-.6,0-1.658,0-3.315.01-4.972a1.06,1.06,0,0,1,1.117-1.124,1.1,1.1,0,0,1,1.1,1.151v5.532h5.41a1.122,1.122,0,1,1,0,2.222C717.956,415.067,716.18,415.067,714.319,415.067Z" transform="translate(-673.51 -361.221)"/><path class="a" d="M609.558,233.464a3.342,3.342,0,1,1,3.333,3.35,3.341,3.341,0,0,1-3.333-3.35Zm4.431-.024a1.176,1.176,0,1,1,0-.007Z" transform="translate(-591.04 -209.784)"/><path class="a" d="M532.962,229.93a3.352,3.352,0,1,1-3.352,3.352A3.352,3.352,0,0,1,532.962,229.93Zm1.109,3.352a1.117,1.117,0,1,0-1.137,1.117,1.138,1.138,0,0,0,1.137-1.123Z" transform="translate(-522.258 -209.612)"/><path class="a" d="M627.632,247.026a1.109,1.109,0,1,1-1.094-1.1A1.117,1.117,0,0,1,627.632,247.026Z" transform="translate(-604.683 -223.378)"/><path class="a" d="M547.784,247.006a1.117,1.117,0,1,1-1.092-1.117A1.14,1.14,0,0,1,547.784,247.006Z" transform="translate(-535.972 -223.341)"/></g></svg>