<svg xmlns="http://www.w3.org/2000/svg" width="42.685" height="42.149" viewBox="0 0 42.685 42.149"><defs><style>.a{fill:#00529f;}.b{fill:#fff;}.c{fill:none;}</style></defs><path class="a" d="M453.629,159h1.689a1.057,1.057,0,0,0,.294.152,8.986,8.986,0,0,1,5.537,14.883,1.063,1.063,0,0,0-.284.752q.01,12.6.005,25.207c0,.134.006.268.01.4H424.8V162.956h21.894a.661.661,0,0,0,.612-.268,8.878,8.878,0,0,1,6.046-3.544A.966.966,0,0,0,453.629,159Zm-26.388,38.873h31.173V176.149A9.055,9.055,0,0,1,445.868,165.4h-6.346V177.12c-.19-.089-.322-.148-.451-.215-1.019-.509-2.033-1.03-3.062-1.518a.8.8,0,0,0-.583,0c-.445.183-.868.421-1.3.636l-2.217,1.113V165.416h-4.667ZM454.47,161.5a6.55,6.55,0,1,0,6.559,6.555A6.55,6.55,0,0,0,454.47,161.5Zm-17.4,3.88c-.795,0-1.557.017-2.317-.008-.34-.012-.43.1-.424.43.012,2.335,0,4.669.008,7,0,.107.02.223.034.377.4-.2.752-.394,1.121-.549a.625.625,0,0,1,.437,0c.376.159.736.355,1.141.556Z" transform="translate(-422.137 -158.248)"/><path class="b" d="M442.2,159a.966.966,0,0,1-.283.151,8.859,8.859,0,0,0-6.046,3.544.658.658,0,0,1-.612.268H413.369V200.4H412V159Z" transform="translate(-410.711 -158.248)"/><path class="b" d="M714.56,200.4c0-.134-.01-.268-.01-.4q0-12.6-.005-25.207a1.063,1.063,0,0,1,.284-.752,8.986,8.986,0,0,0-5.537-14.883A1.056,1.056,0,0,1,709,159h9.5v41.4Z" transform="translate(-675.818 -158.248)"/><path class="b" d="M447.54,251.109V218.652h4.667v11.719l2.223-1.107c.43-.215.859-.453,1.3-.636a.8.8,0,0,1,.583,0c1.029.489,2.04,1.009,3.062,1.518.129.064.261.123.451.215V218.64h6.342a9.054,9.054,0,0,0,12.546,10.745v21.724Zm26.482-15.492H452.243v12.741h21.779Z" transform="translate(-442.435 -211.484)"/><path class="b" d="M646.65,182.31a6.55,6.55,0,1,1-6.55,6.567A6.55,6.55,0,0,1,646.65,182.31Zm1.826,10.1,1.757-1.747-1.894-1.841,1.845-1.765-1.771-1.778-1.852,1.868-1.762-1.805-1.692,1.69,1.856,1.852-1.826,1.776,1.764,1.772,1.819-1.834Z" transform="translate(-614.317 -179.055)"/><path class="b" d="M516.352,218.387V226.2c-.406-.2-.766-.4-1.142-.556a.625.625,0,0,0-.437,0c-.368.155-.718.348-1.121.549-.014-.154-.034-.265-.034-.377q0-3.5-.008-7c0-.329.084-.442.424-.43C514.794,218.4,515.557,218.387,516.352,218.387Z" transform="translate(-501.41 -211.253)"/><path class="a" d="M513.119,376.73v12.741H491.34V376.73Zm-19.359,2.426c-.008.163-.02.306-.02.45,0,2.335.008,4.67-.009,7,0,.369.1.47.469.469q8.033-.018,16.066-.009h.413v-7.915Z" transform="translate(-481.532 -352.598)"/><path class="a" d="M673.465,217.131l-1.751-1.807-1.819,1.834-1.764-1.772,1.826-1.776-1.856-1.852,1.692-1.69,1.762,1.805L673.406,210l1.771,1.778-1.845,1.765,1.89,1.837Z" transform="translate(-639.31 -203.772)"/><path class="b" d="M513.628,399.32h16.919v7.912h-.413q-8.032,0-16.066.009c-.37,0-.473-.1-.469-.469.016-2.335.007-4.67.009-7C513.608,399.626,513.621,399.483,513.628,399.32Zm2.67,5.133h11.579v-2.375H516.3Z" transform="translate(-501.401 -372.762)"/><path class="a" d="M538.73,427.375V425h11.579v2.376Z" transform="translate(-523.833 -395.684)"/><path class="c" d="M41.236,0H0V41.236H41.236V0"/></svg>