<svg xmlns="http://www.w3.org/2000/svg" width="51.424" height="51.424" viewBox="0 0 51.424 51.424"><defs><style>.a{fill:#00529f;}</style></defs><g transform="translate(-295.969 -514.313)"><path class="a" d="M4.017,255.341a4.017,4.017,0,1,0,0,8.035v4.319a1,1,0,0,0,1,1H21.694a1,1,0,0,0,1-1v-5.508a1,1,0,0,0-1.342-.946,1.973,1.973,0,0,1-.667.126,2.009,2.009,0,1,1,0-4.017,1.973,1.973,0,0,1,.667.126,1,1,0,0,0,1.342-.946v-5.508a1,1,0,0,0-1-1H17.376a4.017,4.017,0,0,0-8.035,0H5.022a1,1,0,0,0-1,1Zm.667,2.135a1,1,0,0,0,1.342-.946v-4.5h4.5a1,1,0,0,0,.946-1.342,1.973,1.973,0,0,1-.126-.667,2.009,2.009,0,0,1,4.017,0,1.973,1.973,0,0,1-.126.667,1,1,0,0,0,.946,1.342h4.5v3.314a4.017,4.017,0,1,0,0,8.035v3.314H6.026v-4.5a1,1,0,0,0-1.342-.946,1.973,1.973,0,0,1-.667.126,2.009,2.009,0,1,1,0-4.017A1.973,1.973,0,0,1,4.685,257.476Z" transform="translate(295.969 293.021)"/><path class="a" d="M304.681,45.323V41a1,1,0,0,0-1-1H287a1,1,0,0,0-1,1v5.508a1,1,0,0,0,1.342.946,1.973,1.973,0,0,1,.667-.126,2.009,2.009,0,1,1,0,4.017,1.973,1.973,0,0,1-.667-.126,1,1,0,0,0-1.342.946v5.508a1,1,0,0,0,1,1h4.319a4.018,4.018,0,0,0,8.035,0h4.319a1,1,0,0,0,1-1V53.358a4.018,4.018,0,0,0,0-8.035Zm0,6.026a1.973,1.973,0,0,1-.667-.126,1,1,0,0,0-1.342.946v4.5h-4.5a1,1,0,0,0-.946,1.342,1.972,1.972,0,0,1,.127.667,2.009,2.009,0,0,1-4.018,0,1.973,1.973,0,0,1,.126-.667,1,1,0,0,0-.946-1.342h-4.5V53.358a4.018,4.018,0,0,0,0-8.035V42.009h14.664v4.5a1,1,0,0,0,1.342.946,1.972,1.972,0,0,1,.667-.126,2.009,2.009,0,0,1,0,4.017Z" transform="translate(38.694 478.331)"/><path class="a" d="M57.677,4.017H53.358a4.018,4.018,0,0,0-8.035,0H41a1,1,0,0,0-1,1V21.694a1,1,0,0,0,1,1h5.508a1,1,0,0,0,.946-1.342,1.973,1.973,0,0,1-.126-.667,2.009,2.009,0,1,1,4.017,0,1.973,1.973,0,0,1-.126.667,1,1,0,0,0,.946,1.342h5.508a1,1,0,0,0,1-1V17.376a4.017,4.017,0,0,0,0-8.035V5.022A1,1,0,0,0,57.677,4.017Zm3.013,9.341a2.011,2.011,0,0,1-2.009,2.009,1.973,1.973,0,0,1-.667-.126,1,1,0,0,0-1.342.946v4.5H53.358a4.018,4.018,0,0,0-8.035,0H42.009V6.026h4.5a1,1,0,0,0,.946-1.342,1.973,1.973,0,0,1-.126-.667,2.009,2.009,0,1,1,4.017,0,1.973,1.973,0,0,1-.126.667,1,1,0,0,0,.946,1.342h4.5v4.5a1,1,0,0,0,1.342.946,1.973,1.973,0,0,1,.667-.126A2.011,2.011,0,0,1,60.69,13.358Z" transform="translate(259.986 514.313)"/><path class="a" d="M257.351,286.426a1,1,0,0,0-.821-.426h-5.508a1,1,0,0,0-1,1v4.319a4.018,4.018,0,0,0,0,8.035v4.319a1,1,0,0,0,1,1h4.319a4.017,4.017,0,0,0,8.035,0h4.319a1,1,0,0,0,1-1V299.86a1,1,0,1,0-2.009,0v2.812h-4.5a1,1,0,0,0-.946,1.342,1.972,1.972,0,0,1,.126.667,2.009,2.009,0,1,1-4.017,0,1.972,1.972,0,0,1,.126-.667,1,1,0,0,0-.946-1.342h-4.5v-4.5a1,1,0,0,0-1.342-.946,1.973,1.973,0,0,1-.667.127,2.009,2.009,0,0,1,0-4.018,1.973,1.973,0,0,1,.667.126,1,1,0,0,0,1.342-.946v-4.5h3.314a4.017,4.017,0,0,0,8.035,0h3.314v2.812a1,1,0,0,0,2.009,0V287a1,1,0,0,0-1-1h-5.508a1,1,0,0,0-.946,1.342,1.972,1.972,0,0,1,.126.667,2.009,2.009,0,1,1-4.017,0,1.973,1.973,0,0,1,.126-.667A1,1,0,0,0,257.351,286.426Z" transform="translate(74.676 257.039)"/></g></svg>