<svg xmlns="http://www.w3.org/2000/svg" xmlns:xlink="http://www.w3.org/1999/xlink" width="142" height="60" viewBox="0 0 142 60"><defs><style>.a{fill:#00529f;}.b,.c{fill:#fff;}.b{font-size:18px;font-family:NunitoSans-SemiBold, Nunito Sans;font-weight:600;}.d{filter:url(#a);}</style><filter id="a" x="0" y="0" width="142" height="60" filterUnits="userSpaceOnUse"><feOffset dx="1" dy="3" input="SourceAlpha"/><feGaussianBlur stdDeviation="2" result="b"/><feFlood flood-opacity="0.161"/><feComposite operator="in" in2="b"/><feComposite in="SourceGraphic"/></filter></defs><g transform="translate(5 3)"><g class="d" transform="matrix(1, 0, 0, 1, -5, -3)"><rect class="a" width="130" height="48" rx="4" transform="translate(5 3)"/></g><g transform="translate(-4)"><text class="b" transform="translate(65.287 31)"><tspan x="0" y="0">Edit</tspan></text><g transform="translate(37 17)"><path class="c" d="M9.064,3.709l2.965,2.965L4.524,14.179,1.56,11.214Zm5.215-.715L12.956,1.672a1.312,1.312,0,0,0-1.853,0L9.836,2.939,12.8,5.9l1.477-1.477A1.011,1.011,0,0,0,14.279,2.994ZM.009,15.382a.337.337,0,0,0,.408.4l3.3-.8L.758,12.017Z" transform="translate(-0.001 -1.289)"/></g></g></g></svg>