<svg xmlns="http://www.w3.org/2000/svg" width="46.385" height="51.844" viewBox="0 0 46.385 51.844"><defs><style>.a{fill:#00529f;}</style></defs><g transform="translate(-21.129)"><g transform="translate(21.129)"><path class="a" d="M54.938,0c.227.051.453.106.681.153A8.067,8.067,0,0,1,62.148,8.22c.042,4.05.014,8.1.006,12.151a2.026,2.026,0,0,1-1.4,2.107,1.884,1.884,0,0,1-2.221-.749,3.388,3.388,0,0,1-.4-1.576c-.032-3.9-.027-7.8-.011-11.693a4.2,4.2,0,0,0-1.586-3.544A3.988,3.988,0,0,0,54,4.062q-12.352-.008-24.706,0a4,4,0,0,0-4.088,3.9c-.013.185-.018.371-.018.556V43.347a4.035,4.035,0,0,0,2.286,4,5,5,0,0,0,1.99.425c2.152.052,4.31.013,6.467.023a2.017,2.017,0,0,1,1.367,3.54,6.348,6.348,0,0,1-.852.506H28.359a4.323,4.323,0,0,0-.433-.108,7.992,7.992,0,0,1-6.63-6.6,33.612,33.612,0,0,1-.147-4.288c-.01-10.809.024-21.618-.02-32.428A8.22,8.22,0,0,1,27.678.153c.228-.044.454-.1.681-.153Z" transform="translate(-21.129)"/><path class="a" d="M196.021,241.81a1.1,1.1,0,0,0-.161-.1,2.01,2.01,0,0,1-1.3-2.557q1.161-3.949,2.395-7.877a2.724,2.724,0,0,1,.676-1.044q5.417-5.453,10.866-10.872a6.062,6.062,0,0,1,8.968,8.146,12.129,12.129,0,0,1-.835.88q-5.13,5.133-10.252,10.265a3.553,3.553,0,0,1-1.63.948c-2.642.724-5.275,1.473-7.912,2.214Zm14.938-13.493-2.838-2.857c-.108.1-.242.227-.372.356-2.075,2.073-4.134,4.163-6.235,6.21a4.033,4.033,0,0,0-1.189,1.988c-.228.925-.544,1.829-.849,2.835,1.4-.39,2.707-.747,4.009-1.125a1.058,1.058,0,0,0,.386-.31q1.9-1.891,3.8-3.791C208.77,230.514,209.872,229.4,210.96,228.317Zm.149-5.822,2.824,2.829a2.074,2.074,0,0,0,.362-3.134C213.387,221.244,212.1,221.375,211.109,222.495Z" transform="translate(-172.521 -189.966)"/><path class="a" d="M97.514,100.05h-10.2a2.026,2.026,0,0,1-.333-4.038c.116-.011.235-.013.353-.013h20.457a2.021,2.021,0,0,1,2.191,2.009,2,2,0,0,1-2.11,2.037c-2.458.011-4.916,0-7.374,0Z" transform="translate(-77.047 -83.849)"/><path class="a" d="M97.877,159.967h10.252a2.025,2.025,0,0,1,.328,4.035,5.4,5.4,0,0,1-.554.015H87.8a4.078,4.078,0,0,1-.7-.035,2.025,2.025,0,0,1,.276-4c.739-.029,1.481-.01,2.221-.01Z" transform="translate(-77.337 -139.715)"/><path class="a" d="M93.465,228.079c-2.086,0-4.177.011-6.258,0a2.023,2.023,0,1,1,.052-4.043c2.2-.008,4.407,0,6.611,0,1.968,0,3.938-.01,5.9.006a1.993,1.993,0,0,1,1.983,1.618,1.966,1.966,0,0,1-1.157,2.233,2.872,2.872,0,0,1-1.029.186C97.536,228.088,95.5,228.079,93.465,228.079Z" transform="translate(-77.038 -195.677)"/></g></g></svg>