<svg xmlns="http://www.w3.org/2000/svg" width="52" height="45.073" viewBox="0 0 52 45.073"><defs><style>.a{fill:#00529f;}</style></defs><g transform="translate(0 -33.455)"><g transform="translate(0 33.455)"><path class="a" d="M0,36.7a4.657,4.657,0,0,1,1.455-2.371,3.821,3.821,0,0,1,2.381-.872q10.684-.01,21.368,0a3.842,3.842,0,0,1,3.828,3.816q.047,7.155,0,14.312a3.812,3.812,0,0,1-3.74,3.789c-2.282.049-4.567.021-6.851.022-4.736,0-9.474-.01-14.211.006a3.963,3.963,0,0,1-3.86-2.283A9.872,9.872,0,0,1,0,52.141ZM2.729,53.487l.011.213a12.813,12.813,0,0,0,1.561.19q10.208.019,20.417.007a4,4,0,0,0,.758-.038,7.837,7.837,0,0,0,.851-.257c.029-.062.058-.123.088-.185a2.906,2.906,0,0,1-.468-.311q-2.785-2.817-5.556-5.645a2.677,2.677,0,0,1-.365-.425.729.729,0,0,1,1.031-1,2.858,2.858,0,0,1,.412.375l5.483,5.575c.123.125.256.242.4.38.207-.542.3-12.867.115-13.69l-.319.252Q22.116,43.2,17.085,47.472a3.545,3.545,0,0,1-5.072.028q-3.8-3.209-7.593-6.43c-.937-.794-1.877-1.584-2.862-2.415a1.783,1.783,0,0,0-.046.256q0,6.347.01,12.695a4.151,4.151,0,0,0,.122.711l.186.106a2.748,2.748,0,0,1,.3-.468q2.705-2.786,5.423-5.56a2.765,2.765,0,0,1,.372-.342.7.7,0,0,1,.967.065.663.663,0,0,1,.063.957,3.544,3.544,0,0,1-.305.339l-3.19,3.269ZM14.553,34.959H4.045a2.436,2.436,0,0,0-2.333,1.406.389.389,0,0,0,.118.56Q7.5,41.7,13.153,46.486a1.95,1.95,0,0,0,2.721.014q5.664-4.779,11.313-9.57a.411.411,0,0,0,.128-.6,2.435,2.435,0,0,0-2.3-1.371Q19.779,34.966,14.553,34.959Z" transform="translate(0 -33.455)"/><path class="a" d="M255.68,236.491a12.407,12.407,0,1,1,12.143,12.387A12.366,12.366,0,0,1,255.68,236.491Zm22.266,4.514a10.878,10.878,0,1,0-19.685.084,4.383,4.383,0,0,1,6.206.957c2.938-1.618,3.878-1.639,7.231-.166A4.393,4.393,0,0,1,277.946,241.005Zm-5.235,5.335a4.545,4.545,0,0,0-9.039.112A10.944,10.944,0,0,0,272.711,246.34Zm1.449-.823a10.508,10.508,0,0,0,3.017-3.051,2.67,2.67,0,0,0-4.3.505c.251.4.532.784.744,1.2S273.972,245.041,274.16,245.517Zm-12.059.062c.4-.773.791-1.517,1.162-2.262a.4.4,0,0,0-.026-.319,2.708,2.708,0,0,0-4.2-.458A10.407,10.407,0,0,0,262.1,245.579Z" transform="translate(-228.492 -203.808)"/><path class="a" d="M64.209,265.923V262.56a1.541,1.541,0,0,1,.03-.6,1.312,1.312,0,0,1,.51-.668c.2-.084.519.083.773.171.1.035.172.158.255.242l7.119,7.169c.68.685.678.957-.007,1.638l-7.161,7.125c-.3.3-.614.568-1.063.376s-.47-.616-.469-1.033v-3.46c-.727-.106-1.427-.184-2.121-.3-4.64-.783-7.424-4.956-7.956-8.559a11.507,11.507,0,0,1,0-3.828,1,1,0,0,1,.093-.391c.18-.239.359-.544.611-.649.346-.144.62.106.829.416a30.022,30.022,0,0,0,1.9,2.687,8.188,8.188,0,0,0,6.211,3.067C63.9,265.959,64.029,265.937,64.209,265.923Zm1.5,9.549,5.755-5.807c-1.894-1.873-3.828-3.789-5.771-5.705v2.574c0,.451-.187.789-.638.823a11.936,11.936,0,0,1-2.221.035,10.177,10.177,0,0,1-6.983-4.165c-.1-.124-.2-.243-.379-.454a9.559,9.559,0,0,0,.985,4.271A8.155,8.155,0,0,0,60.81,271.3a11.719,11.719,0,0,0,3.921.684c.77.017.978.266.984,1.035C65.716,273.8,65.711,274.595,65.711,275.472Z" transform="translate(-48.22 -235.685)"/><path class="a" d="M340.859,304.409a3.848,3.848,0,1,1-3.844,3.853A3.884,3.884,0,0,1,340.859,304.409Zm-2.321,3.866a2.354,2.354,0,0,0,2.322,2.339,2.4,2.4,0,0,0,2.37-2.354,2.369,2.369,0,0,0-2.365-2.349,2.332,2.332,0,0,0-2.328,2.364Z" transform="translate(-301.178 -275.596)"/><path class="a" d="M279.914,314.229a3.012,3.012,0,0,1,3,3,3.051,3.051,0,0,1-2.985,2.977,3,3,0,0,1-3-2.993,2.957,2.957,0,0,1,2.985-2.985Zm.014,1.5a1.434,1.434,0,0,0-1.5,1.45,1.478,1.478,0,0,0,1.432,1.524,1.532,1.532,0,0,0,1.542-1.489,1.489,1.489,0,0,0-1.48-1.486Z" transform="translate(-247.481 -284.372)"/><path class="a" d="M411.569,315.417a3,3,0,0,1,3.011-2.977,2.991,2.991,0,1,1-.03,5.983,2.977,2.977,0,0,1-2.982-3.005Zm3,1.489a1.489,1.489,0,1,0-.067-2.966,1.463,1.463,0,0,0-1.432,1.52,1.444,1.444,0,0,0,1.5,1.45Z" transform="translate(-367.804 -282.773)"/></g></g></svg>