<svg xmlns="http://www.w3.org/2000/svg" width="32.026" height="24.02" viewBox="0 0 32.026 24.02"><defs><style>.a{fill:#00529f;}</style></defs><g transform="translate(0 -64)"><g transform="translate(0 64)"><path class="a" d="M25.354,73.375V66.669A2.672,2.672,0,0,0,22.685,64H2.669A2.671,2.671,0,0,0,0,66.669V80.013a2.671,2.671,0,0,0,2.669,2.669H17.632a7.335,7.335,0,0,0,10.725,4.355.667.667,0,0,0-.669-1.155,6.006,6.006,0,1,1,3-5.2v.667a1.334,1.334,0,0,1-2.669,0V78.679A.665.665,0,0,0,26.9,78.2a3.335,3.335,0,1,0,.282,4.679,2.665,2.665,0,0,0,4.849-1.53V80.68A7.347,7.347,0,0,0,25.354,73.375ZM2.669,65.334H22.685c.028,0,.051.014.078.016l-9.538,7.829a1.127,1.127,0,0,1-1.052.034L2.591,65.35C2.618,65.349,2.641,65.334,2.669,65.334Zm21.351,8.04a7.347,7.347,0,0,0-6.672,7.306c0,.225.014.447.034.667H2.669a1.336,1.336,0,0,1-1.334-1.334V66.669a1.32,1.32,0,0,1,.113-.53l9.938,8.15a2.347,2.347,0,0,0,2.538.029.648.648,0,0,0,.108-.072l9.876-8.106a1.321,1.321,0,0,1,.113.531v6.706Zm.667,9.307a2,2,0,1,1,2-2A2,2,0,0,1,24.687,82.682Z" transform="translate(0 -64)"/></g></g></svg>