<svg xmlns="http://www.w3.org/2000/svg" width="16" height="16.795" viewBox="0 0 16 16.795"><defs><style>.a{opacity:0.43;}.b{fill:#b1b1b1;}</style></defs><g class="a"><g transform="translate(3.157 0.008)"><path class="b" d="M12.635,7.075,22.12.652a2.112,2.112,0,0,1,1.142-.4c.762,0,1.267.629,1.267,1.641v13.5a1.984,1.984,0,0,1-.363,1.2,1.151,1.151,0,0,1-.935.446,2.068,2.068,0,0,1-1.126-.4l-9.476-6.423a1.916,1.916,0,0,1-.943-1.567A1.921,1.921,0,0,1,12.635,7.075Z" transform="translate(-11.686 -0.248)"/></g><g transform="translate(0)"><path class="b" d="M456.01,493.668h0Z" transform="translate(-455.189 -476.877)"/><path class="b" d="M417.413,0h.363a.913.913,0,0,1,.887.918V15.863a.911.911,0,0,1-.881.923l-.386.005a.879.879,0,0,1-.83-.927V.918A.88.88,0,0,1,417.413,0Z" transform="translate(-416.566)"/></g></g></svg>