<svg xmlns="http://www.w3.org/2000/svg" width="24.106" height="24.106" viewBox="0 0 24.106 24.106"><defs><style>.a{fill:#00529f;}</style></defs><path class="a" d="M24.106,16.314A7.81,7.81,0,0,0,18.4,8.805,9.2,9.2,0,1,0,1.276,13.883L.034,18.375l4.492-1.242A9.171,9.171,0,0,0,8.805,18.4a7.795,7.795,0,0,0,11.474,4.623l3.793,1.049-1.049-3.793a7.764,7.764,0,0,0,1.083-3.965ZM4.749,15.606,2.06,16.35,2.8,13.66l-.17-.265a7.79,7.79,0,1,1,2.38,2.38Zm17.3,6.441-2-.552-.266.173a6.382,6.382,0,0,1-9.519-3.32,9.222,9.222,0,0,0,8.082-8.082,6.382,6.382,0,0,1,3.32,9.519l-.173.266Zm0,0"/><path class="a" d="M180.5,271h1.412v1.413H180.5Zm0,0" transform="translate(-172.002 -258.241)"/><path class="a" d="M139.737,92.825a1.4,1.4,0,0,1-.46,1.043l-1.659,1.518V97.11h1.412v-1.1l1.2-1.1a2.825,2.825,0,1,0-4.731-2.085h1.412a1.412,1.412,0,1,1,2.825,0Zm0,0" transform="translate(-129.12 -85.763)"/></svg>