<svg xmlns="http://www.w3.org/2000/svg" width="51.362" height="51.424" viewBox="0 0 51.362 51.424"><defs><style>.a{fill:#00529f;}</style></defs><path class="a" d="M31.786,0A19.567,19.567,0,0,0,15.129,29.848L0,45.035l6.388,6.388L21.518,36.236A19.574,19.574,0,1,0,31.786,0ZM6.385,47.16,4.256,45.031l2.383-2.392,2.129,2.129Zm4.509-4.526L8.764,40.5l8.164-8.2a19.729,19.729,0,0,0,2.13,2.129Zm20.892-6.493A16.565,16.565,0,1,1,48.351,19.576,16.584,16.584,0,0,1,31.786,36.141Zm0,0" transform="translate(0 0)"/><path class="a" d="M195.084,59.973a13.553,13.553,0,1,0,13.553,13.553A13.568,13.568,0,0,0,195.084,59.973Zm0,24.094a10.541,10.541,0,1,1,10.541-10.541A10.553,10.553,0,0,1,195.084,84.067Zm0,0" transform="translate(-163.298 -53.949)"/><path class="a" d="M251.478,160.789l-3.453-3.453-2.13,2.13,5.583,5.583,8.594-8.594-2.13-2.13Zm0,0" transform="translate(-221.198 -138.825)"/></svg>