<svg xmlns="http://www.w3.org/2000/svg" width="16" height="16.795" viewBox="0 0 16 16.795"><defs><style>.a{fill:#00529f;}</style></defs><g transform="translate(-11.686)"><g transform="translate(11.686 0.008)"><g transform="translate(0)"><path class="a" d="M23.58,7.075,14.1.652a2.112,2.112,0,0,0-1.142-.4c-.762,0-1.267.629-1.267,1.641v13.5a1.984,1.984,0,0,0,.363,1.2,1.151,1.151,0,0,0,.935.446,2.068,2.068,0,0,0,1.126-.4l9.476-6.423a1.916,1.916,0,0,0,.943-1.567A1.921,1.921,0,0,0,23.58,7.075Z" transform="translate(-11.686 -0.248)"/></g></g><g transform="translate(25.589)"><path class="a" d="M456.024,493.668h0Z" transform="translate(-454.748 -476.877)"/><path class="a" d="M417.816,0h-.363a.913.913,0,0,0-.887.918V15.863a.911.911,0,0,0,.881.923l.386.005a.879.879,0,0,0,.83-.927V.918A.88.88,0,0,0,417.816,0Z" transform="translate(-416.566)"/></g></g></svg>