<svg xmlns="http://www.w3.org/2000/svg" width="15.959" height="15.959" viewBox="0 0 15.959 15.959"><defs><style>.a{fill:#fff;}</style></defs><g transform="translate(-0.001 0)"><g transform="translate(0.001 0)"><path class="a" d="M14.066,11.051A6.476,6.476,0,1,0,4.908,1.893a6.35,6.35,0,0,0-.974,7.815.272.272,0,0,1-.038.325l-3.3,3.3A1.509,1.509,0,0,0,.362,15.5l.1.1a1.509,1.509,0,0,0,2.16-.231l3.3-3.3a.276.276,0,0,1,.331-.045A6.35,6.35,0,0,0,14.066,11.051ZM6.1,9.856a4.785,4.785,0,1,1,6.767,0A4.79,4.79,0,0,1,6.1,9.856Z" transform="translate(-0.001 0)"/><g transform="translate(5.848 2.592)"><path class="a" d="M114.42,53.906a.669.669,0,0,1-.615-.929,4.212,4.212,0,0,1,5.514-2.235.668.668,0,1,1-.521,1.231,2.874,2.874,0,0,0-3.762,1.525A.669.669,0,0,1,114.42,53.906Z" transform="translate(-113.752 -50.409)"/></g></g></g></svg>