<svg xmlns="http://www.w3.org/2000/svg" width="43" height="43.389" viewBox="0 0 43 43.389"><defs><style>.a,.b{fill:#0065ff;}.b{stroke:#fff;stroke-width:2px;}.c{stroke:none;}.d{fill:none;}</style></defs><g transform="translate(-1517 -42)"><g transform="translate(1515 49)"><path class="a" d="M31.383,25.644a10.155,10.155,0,0,1-3.607-7.771V13.646a10.622,10.622,0,0,0-9.1-10.492V1.516a1.516,1.516,0,1,0-3.032,0V3.154a10.621,10.621,0,0,0-9.1,10.492v4.227a10.167,10.167,0,0,1-3.621,7.783,2.653,2.653,0,0,0,1.725,4.668H29.671a2.653,2.653,0,0,0,1.712-4.681Z"/><path class="a" d="M13.9,25.549A5.7,5.7,0,0,0,19.467,21H8.326A5.7,5.7,0,0,0,13.9,25.549Z" transform="translate(3.266 10.84)"/></g><g class="b" transform="translate(1532 42)"><circle class="c" cx="14" cy="14" r="14"/><circle class="d" cx="14" cy="14" r="13"/></g></g></svg>