<svg xmlns="http://www.w3.org/2000/svg" width="30.898" height="40.563" viewBox="0 0 30.898 40.563"><defs><style>.a{fill:#00529f;}</style></defs><g transform="translate(-60.999)"><g transform="translate(60.999)"><path class="a" d="M91.9,10.7A3.569,3.569,0,0,0,88.332,7.13H86.939a3.571,3.571,0,0,0-3.361-2.377H82.129L81.616,2.7A3.56,3.56,0,0,0,78.157,0H74.739A3.56,3.56,0,0,0,71.28,2.7l-.513,2.053H69.318A3.571,3.571,0,0,0,65.957,7.13H64.564A3.569,3.569,0,0,0,61,10.7V37a3.569,3.569,0,0,0,3.565,3.565H88.332A3.556,3.556,0,0,0,91.9,37.009C91.9,29.427,91.9,10.7,91.9,10.7ZM68.129,8.319A1.19,1.19,0,0,1,69.318,7.13h2.377a1.188,1.188,0,0,0,1.153-.9l.738-2.953a1.187,1.187,0,0,1,1.153-.9h3.419a1.187,1.187,0,0,1,1.153.9l.738,2.953a1.189,1.189,0,0,0,1.153.9h2.377a1.19,1.19,0,0,1,1.188,1.188V9.507H68.129ZM89.175,37.841a1.187,1.187,0,0,1-.843.345H64.564A1.19,1.19,0,0,1,63.376,37V10.7a1.19,1.19,0,0,1,1.188-1.188h1.188V10.7a1.188,1.188,0,0,0,1.188,1.188H85.955A1.188,1.188,0,0,0,87.143,10.7V9.507h1.188A1.19,1.19,0,0,1,89.52,10.7s0,18.731,0,26.313A1.165,1.165,0,0,1,89.175,37.841Z" transform="translate(-60.999)"/></g><g transform="translate(65.752 14.34)"><g transform="translate(0)"><path class="a" d="M130.156,181.348a1.188,1.188,0,0,0-1.68,0l-3.913,3.913-1.536-1.536a1.188,1.188,0,0,0-1.681,1.681l2.377,2.377a1.188,1.188,0,0,0,1.681,0l4.754-4.754A1.188,1.188,0,0,0,130.156,181.348Z" transform="translate(-120.998 -181)"/></g></g><g transform="translate(65.752 21.47)"><g transform="translate(0)"><path class="a" d="M130.156,271.348a1.188,1.188,0,0,0-1.68,0l-3.913,3.913-1.536-1.536a1.188,1.188,0,0,0-1.681,1.681l2.377,2.377a1.188,1.188,0,0,0,1.681,0l4.754-4.754A1.188,1.188,0,0,0,130.156,271.348Z" transform="translate(-120.998 -271)"/></g></g><g transform="translate(65.752 28.6)"><g transform="translate(0)"><path class="a" d="M130.156,361.348a1.188,1.188,0,0,0-1.68,0l-3.913,3.913-1.536-1.536a1.188,1.188,0,0,0-1.681,1.681l2.377,2.377a1.188,1.188,0,0,0,1.681,0l4.754-4.754A1.188,1.188,0,0,0,130.156,361.348Z" transform="translate(-120.998 -361)"/></g></g><g transform="translate(77.636 16.717)"><g transform="translate(0)"><path class="a" d="M279.318,211h-7.13a1.188,1.188,0,1,0,0,2.377h7.13a1.188,1.188,0,1,0,0-2.377Z" transform="translate(-270.999 -211)"/></g></g><g transform="translate(77.636 23.847)"><g transform="translate(0)"><path class="a" d="M279.318,301h-7.13a1.188,1.188,0,1,0,0,2.377h7.13a1.188,1.188,0,1,0,0-2.377Z" transform="translate(-270.999 -301)"/></g></g><g transform="translate(77.636 30.977)"><g transform="translate(0)"><path class="a" d="M279.318,391h-7.13a1.188,1.188,0,1,0,0,2.377h7.13a1.188,1.188,0,1,0,0-2.377Z" transform="translate(-270.999 -391)"/></g></g><g transform="translate(76.446 5.07)"><g transform="translate(0)"><ellipse class="a" cy="1.268" ry="1.268"/></g></g></g></svg>