<svg xmlns="http://www.w3.org/2000/svg" width="22.654" height="22.654" viewBox="0 0 22.654 22.654"><defs><style>.a{fill:#00529f;}</style></defs><g transform="translate(0 0)"><path class="a" d="M2.72,12.371a8.963,8.963,0,0,1-.066-1.045A8.636,8.636,0,0,1,17.145,4.942l-.765.779a.679.679,0,0,0-.172.664.7.7,0,0,0,.5.451c.134.027,4.523,1.441,4.243,1.385a.671.671,0,0,0,.783-.783c-.027-.134-1-5.009-.942-4.73a.658.658,0,0,0-1.115-.332l-.65.637A11.334,11.334,0,0,0,0,11.327v.026c0,.374.017.663.037.885a.664.664,0,0,0,.531.591l1.363.273a.664.664,0,0,0,.789-.73Zm0,0"/><path class="a" d="M41.63,215.713l-1.367-.279a.664.664,0,0,0-.792.731,9.035,9.035,0,0,1,.068,1.051,8.626,8.626,0,0,1-14.491,6.371l.765-.765a.679.679,0,0,0,.172-.664.694.694,0,0,0-.5-.451c-.134-.027-4.523-1.441-4.243-1.385a.65.65,0,0,0-.6.186.661.661,0,0,0-.186.6l.943,4.686a.665.665,0,0,0,.464.5.638.638,0,0,0,.65-.173l.637-.637a11.31,11.31,0,0,0,19.043-8.269v-.04c0-.294-.011-.583-.035-.87a.663.663,0,0,0-.529-.593Zm0,0" transform="translate(-19.541 -205.89)"/></g></svg>