<svg xmlns="http://www.w3.org/2000/svg" width="36.796" height="36.796" viewBox="0 0 36.796 36.796"><defs><style>.a{fill:#00529f;}</style></defs><g transform="translate(-303.602 -771.314)"><path class="a" d="M4.419,20.095a14.558,14.558,0,0,1-.108-1.7A14.027,14.027,0,0,1,27.848,8.027L26.6,9.292a1.1,1.1,0,0,0-.28,1.078,1.128,1.128,0,0,0,.819.733c.217.044,7.346,2.341,6.892,2.249a1.09,1.09,0,0,0,1.272-1.272c-.044-.217-1.622-8.136-1.531-7.683a1.068,1.068,0,0,0-1.811-.539L30.909,4.894A18.41,18.41,0,0,0,0,18.4v.043c0,.608.028,1.077.06,1.437a1.078,1.078,0,0,0,.863.96l2.215.443a1.079,1.079,0,0,0,1.282-1.186Zm0,0" transform="translate(303.603 771.314)"/><path class="a" d="M54.855,215.9l-2.221-.452a1.079,1.079,0,0,0-1.286,1.187,14.674,14.674,0,0,1,.111,1.707,14.01,14.01,0,0,1-23.536,10.349l1.243-1.243a1.1,1.1,0,0,0,.28-1.078,1.128,1.128,0,0,0-.819-.733c-.217-.044-7.346-2.341-6.892-2.249a1.056,1.056,0,0,0-.97.3,1.074,1.074,0,0,0-.3.97l1.531,7.61a1.08,1.08,0,0,0,.754.819,1.035,1.035,0,0,0,1.056-.28l1.035-1.035a18.37,18.37,0,0,0,30.931-13.432v-.065c0-.478-.017-.947-.057-1.413a1.078,1.078,0,0,0-.859-.963Zm0,0" transform="translate(284.627 571.375)"/></g></svg>