<svg xmlns="http://www.w3.org/2000/svg" width="43.896" height="43.896" viewBox="0 0 43.896 43.896"><defs><style>.a{fill:#00529f;}</style></defs><path class="a" d="M270.554,9.15l-3.068-.73q-.1-.281-.231-.556l1.653-2.686a.643.643,0,0,0-.093-.792l-2.152-2.152a.643.643,0,0,0-.792-.093l-2.687,1.653q-.274-.126-.556-.231L261.9.494A.643.643,0,0,0,261.273,0h-3.044a.643.643,0,0,0-.626.494l-.73,3.068q-.281.1-.556.231L253.63,2.14a.643.643,0,0,0-.792.093l-2.153,2.152a.643.643,0,0,0-.093.792l1.653,2.686q-.126.275-.231.556l-3.068.73a.643.643,0,0,0-.494.626V12.82a.643.643,0,0,0,.494.626l3.068.73q.1.281.231.556l-1.653,2.686a.643.643,0,0,0,.093.792l2.153,2.153a.643.643,0,0,0,.792.093l2.686-1.653q.275.126.556.231l.73,3.068a.643.643,0,0,0,.626.494h3.044a.643.643,0,0,0,.625-.494l.73-3.068q.281-.1.556-.231l2.686,1.653a.643.643,0,0,0,.792-.093l2.152-2.153a.643.643,0,0,0,.093-.792l-1.653-2.686q.126-.274.231-.556l3.068-.73a.643.643,0,0,0,.494-.626V9.776a.643.643,0,0,0-.494-.625Zm-.792,3.162-2.916.694a.643.643,0,0,0-.463.428,6.934,6.934,0,0,1-.432,1.04.643.643,0,0,0,.024.631l1.572,2.554-1.434,1.434-2.554-1.572a.643.643,0,0,0-.631-.024,6.931,6.931,0,0,1-1.04.432.643.643,0,0,0-.428.463l-.694,2.916h-2.028l-.694-2.916a.643.643,0,0,0-.428-.463,6.924,6.924,0,0,1-1.04-.432.643.643,0,0,0-.631.024l-2.554,1.572-1.434-1.434,1.572-2.554a.643.643,0,0,0,.024-.631,6.922,6.922,0,0,1-.432-1.04.643.643,0,0,0-.463-.429l-2.916-.694V10.283l2.916-.694a.643.643,0,0,0,.463-.429,6.934,6.934,0,0,1,.432-1.04.643.643,0,0,0-.024-.631l-1.572-2.554L253.388,3.5l2.554,1.572a.643.643,0,0,0,.631.024,6.952,6.952,0,0,1,1.04-.432.643.643,0,0,0,.428-.463l.694-2.916h2.028l.694,2.916a.643.643,0,0,0,.428.463,6.951,6.951,0,0,1,1.04.432.643.643,0,0,0,.631-.024L266.113,3.5l1.434,1.434L265.975,7.49a.643.643,0,0,0-.024.631,6.95,6.95,0,0,1,.432,1.04.643.643,0,0,0,.463.428l2.916.694Z" transform="translate(-227.152 0)"/><path class="a" d="M343.671,91.023a.643.643,0,0,0-.447.792,2.4,2.4,0,1,1-1.592-1.649.643.643,0,1,0,.389-1.226,3.686,3.686,0,1,0,2.442,2.53A.643.643,0,0,0,343.671,91.023Z" transform="translate(-308.311 -81.158)"/><path class="a" d="M92.42,337.28a3.688,3.688,0,0,0-3.516,4.793.643.643,0,0,0,1.226-.387,2.4,2.4,0,1,1,1.652,1.594.643.643,0,0,0-.346,1.239,3.686,3.686,0,1,0,.983-7.239Z" transform="translate(-81.126 -308.363)"/><path class="a" d="M22.093,257.694l-3.066-.73q-.1-.281-.231-.556l1.652-2.685a.643.643,0,0,0-.093-.792L18.2,250.779a.643.643,0,0,0-.792-.093l-2.685,1.652q-.274-.126-.556-.231l-.73-3.066a.643.643,0,0,0-.626-.494H9.772a.643.643,0,0,0-.626.494l-.73,3.066q-.281.1-.556.231l-2.685-1.652a.643.643,0,0,0-.792.093l-2.152,2.152a.643.643,0,0,0-.093.792l1.652,2.685q-.126.274-.231.556l-3.066.73a.643.643,0,0,0-.494.626v3.043a.643.643,0,0,0,.494.626l3.066.73c.07.187.147.373.231.556l-1.652,2.685a.643.643,0,0,0,.093.792L4.384,268.9a.643.643,0,0,0,.792.093l2.685-1.652q.274.126.556.231l.73,3.067a.643.643,0,0,0,.626.494h3.043a.643.643,0,0,0,.626-.494l.73-3.067q.281-.1.556-.231L17.412,269a.643.643,0,0,0,.792-.093l2.152-2.152a.643.643,0,0,0,.093-.792L18.8,263.274q.126-.275.231-.556l3.066-.73a.643.643,0,0,0,.494-.626v-3.043a.643.643,0,0,0-.494-.626Zm-.792,3.161-2.915.694a.643.643,0,0,0-.463.429,6.923,6.923,0,0,1-.432,1.04.643.643,0,0,0,.024.631l1.571,2.553-1.433,1.434L15.1,266.063a.643.643,0,0,0-.631-.024,6.935,6.935,0,0,1-1.04.432.643.643,0,0,0-.428.463l-.694,2.915H10.28l-.694-2.915a.643.643,0,0,0-.428-.463,6.939,6.939,0,0,1-1.04-.432.643.643,0,0,0-.631.024l-2.553,1.571L3.5,266.2l1.571-2.553a.643.643,0,0,0,.024-.631,6.936,6.936,0,0,1-.432-1.04.643.643,0,0,0-.463-.429l-2.915-.694v-2.027l2.915-.694a.643.643,0,0,0,.463-.428,6.953,6.953,0,0,1,.432-1.04.643.643,0,0,0-.024-.631L3.5,253.481l1.433-1.434,2.553,1.571a.643.643,0,0,0,.631.024,6.94,6.94,0,0,1,1.04-.432.643.643,0,0,0,.428-.463l.694-2.915h2.027L13,252.748a.643.643,0,0,0,.428.463,6.94,6.94,0,0,1,1.04.432.643.643,0,0,0,.631-.024l2.553-1.571,1.433,1.434-1.571,2.553a.643.643,0,0,0-.024.631,6.929,6.929,0,0,1,.432,1.04.643.643,0,0,0,.463.428l2.915.694Z" transform="translate(0 -227.238)"/><path class="a" d="M339.813,299.056a.643.643,0,0,0-.643.643v4.588a1.09,1.09,0,0,1-1.089,1.089h-4.6l.981-.981a.643.643,0,1,0-.909-.909l-2.079,2.078a.643.643,0,0,0,0,.909l2.079,2.079a.643.643,0,1,0,.909-.909l-.981-.981h4.6a2.378,2.378,0,0,0,2.375-2.375V299.7A.643.643,0,0,0,339.813,299.056Z" transform="translate(-302.884 -273.416)"/><path class="a" d="M74.315,109.667a.643.643,0,0,0,.643-.643v-4.588a1.09,1.09,0,0,1,1.089-1.089h4.6l-.981.981a.643.643,0,0,0,.909.909l2.079-2.078a.643.643,0,0,0,0-.909l-2.079-2.079a.643.643,0,0,0-.909.909l.981.981h-4.6a2.378,2.378,0,0,0-2.375,2.375v4.588A.643.643,0,0,0,74.315,109.667Z" transform="translate(-67.356 -91.41)"/></svg>