<svg xmlns="http://www.w3.org/2000/svg" width="38.732" height="41.87" viewBox="0 0 38.732 41.87"><defs><style>.a{fill:#00529f;stroke:#fff;stroke-width:0.5px;}</style></defs><g transform="translate(-19.816 -6.75)"><g transform="translate(20.066 7)"><path class="a" d="M94.095,14.126a6.834,6.834,0,0,0,4.994-2.069,6.834,6.834,0,0,0,2.069-4.994,6.835,6.835,0,0,0-2.069-4.994,7.061,7.061,0,0,0-9.988,0,6.834,6.834,0,0,0-2.069,4.994A6.834,6.834,0,0,0,89.1,12.057,6.836,6.836,0,0,0,94.095,14.126Zm0,0" transform="translate(-82.047 0)"/><path class="a" d="M24.406,255.7a17.446,17.446,0,0,0-.238-1.853,14.6,14.6,0,0,0-.456-1.863,9.2,9.2,0,0,0-.766-1.737,6.557,6.557,0,0,0-1.155-1.505,5.093,5.093,0,0,0-1.659-1.042,5.733,5.733,0,0,0-2.118-.383,2.15,2.15,0,0,0-1.148.487c-.344.224-.747.484-1.2.771a6.853,6.853,0,0,1-1.547.682,6.009,6.009,0,0,1-3.785,0,6.838,6.838,0,0,1-1.546-.681c-.445-.284-.848-.544-1.2-.771a2.146,2.146,0,0,0-1.147-.487,5.726,5.726,0,0,0-2.118.384,5.087,5.087,0,0,0-1.659,1.042,6.558,6.558,0,0,0-1.154,1.5,9.22,9.22,0,0,0-.766,1.738A14.633,14.633,0,0,0,.3,253.847,17.383,17.383,0,0,0,.058,255.7C.02,256.262,0,256.844,0,257.433a4.869,4.869,0,0,0,1.446,3.684,5.206,5.206,0,0,0,3.727,1.359h14.12a5.2,5.2,0,0,0,3.726-1.359,4.867,4.867,0,0,0,1.446-3.684c0-.591-.02-1.174-.059-1.732Zm0,0" transform="translate(0 -233.152)"/></g><g transform="translate(33.833 19.046)"><path class="a" d="M94.095,14.126a6.834,6.834,0,0,0,4.994-2.069,6.834,6.834,0,0,0,2.069-4.994,6.835,6.835,0,0,0-2.069-4.994,7.061,7.061,0,0,0-9.988,0,6.834,6.834,0,0,0-2.069,4.994A6.834,6.834,0,0,0,89.1,12.057,6.836,6.836,0,0,0,94.095,14.126Zm0,0" transform="translate(-82.047 0)"/><path class="a" d="M24.406,255.7a17.446,17.446,0,0,0-.238-1.853,14.6,14.6,0,0,0-.456-1.863,9.2,9.2,0,0,0-.766-1.737,6.557,6.557,0,0,0-1.155-1.505,5.093,5.093,0,0,0-1.659-1.042,5.733,5.733,0,0,0-2.118-.383,2.15,2.15,0,0,0-1.148.487c-.344.224-.747.484-1.2.771a6.853,6.853,0,0,1-1.547.682,6.009,6.009,0,0,1-3.785,0,6.838,6.838,0,0,1-1.546-.681c-.445-.284-.848-.544-1.2-.771a2.146,2.146,0,0,0-1.147-.487,5.726,5.726,0,0,0-2.118.384,5.087,5.087,0,0,0-1.659,1.042,6.558,6.558,0,0,0-1.154,1.5,9.22,9.22,0,0,0-.766,1.738A14.633,14.633,0,0,0,.3,253.847,17.383,17.383,0,0,0,.058,255.7C.02,256.262,0,256.844,0,257.433a4.869,4.869,0,0,0,1.446,3.684,5.206,5.206,0,0,0,3.727,1.359h14.12a5.2,5.2,0,0,0,3.726-1.359,4.867,4.867,0,0,0,1.446-3.684c0-.591-.02-1.174-.059-1.732Zm0,0" transform="translate(0 -233.152)"/></g></g></svg>