<svg xmlns="http://www.w3.org/2000/svg" width="49.723" height="49.723" viewBox="0 0 49.723 49.723"><defs><style>.a{fill:#00529f;}</style></defs><path class="a" d="M43.647,19.11h0l4.269,3.451,1.807-2.273-8.2-6.63V0H31.435V5.5L24.862.192,0,20.288l1.807,2.273,4.208-3.4V46.81H1.654v2.913H48.069V46.81H43.647Zm-9.324-16.2h4.309v8.409L34.324,7.84ZM23.417,46.81H14.448V37.764h3.04v3.112h2.889V37.764h3.04Zm-3.04-11.959v-9.07h3.04V28.9h2.889V25.781h3.04v9.07H20.377Zm14.9,11.959H26.306V37.764h3.04v3.112h2.889V37.764h3.04Zm5.483,0H38.164V34.851H32.235V22.867H17.488V34.851H11.559V46.81H8.9V16.824l15.958-12.9,15.9,12.85Z"/></svg>