<svg xmlns="http://www.w3.org/2000/svg" width="23.558" height="14.043" viewBox="0 0 23.558 14.043"><defs><style>.a{fill:#00529f;}</style></defs><path class="a" d="M11.779,98.725c-4.5,0-8.583,2.463-11.594,6.462a.933.933,0,0,0,0,1.113c3.012,4,7.094,6.467,11.594,6.467s8.583-2.463,11.594-6.462a.933.933,0,0,0,0-1.113C20.361,101.188,16.28,98.725,11.779,98.725Zm.323,11.966a4.955,4.955,0,1,1,4.621-4.621A4.958,4.958,0,0,1,12.1,110.691Zm-.149-2.284a2.668,2.668,0,1,1,2.491-2.491A2.664,2.664,0,0,1,11.952,108.406Z" transform="translate(0 -98.725)"/></svg>